<svg width="20" height="20" viewBox="0 0 20 20" fill="none" xmlns="http://www.w3.org/2000/svg">
	<path d="M18.25 2.60992V2.61289V17.2504C18.25 17.8095 17.8275 18.25 17.3461 18.25H2.74531C2.22633 18.25 1.75 17.7702 1.75 17.2504V2.61289C1.75 2.15677 2.1634 1.75 2.74531 1.75H17.3504C17.8906 1.75 18.2529 2.11764 18.25 2.60992ZM6.67461 16.3371H7.17461V15.8371V8.04219V7.54219H6.67461H4.16758H3.66758V8.04219V15.8371V16.3371H4.16758H6.67461ZM7.36172 5.51237L7.36186 5.51237L7.36158 5.50038C7.35012 5.01186 7.18254 4.55036 6.85358 4.20689C6.52071 3.85934 6.05553 3.66758 5.52148 3.66758C4.98813 3.66758 4.51728 3.85977 4.17978 4.20461C3.84413 4.54755 3.66797 5.01314 3.66797 5.51211C3.66797 6.51047 4.38659 7.35703 5.48984 7.35703H5.50781C6.0498 7.35703 6.52161 7.16 6.85723 6.81207C7.18991 6.46717 7.36146 6.00255 7.36172 5.51237ZM15.8371 16.3371H16.3371L16.3371 15.8372L16.3375 11.2832V11.2832C16.3375 10.0281 16.0027 9.03768 15.3778 8.35649C14.749 7.67108 13.8823 7.35977 12.9469 7.35977C12.1921 7.35977 11.6225 7.5721 11.1859 7.8771V7.54219H10.6859H8.17891H7.67891V8.04219V15.8371V16.3371H8.17891H10.6859H11.1859V15.8371V11.3973C11.1859 11.1767 11.2068 11.0397 11.2342 10.9739L11.2342 10.974L11.237 10.9671C11.3731 10.6264 11.6392 10.3563 12.0582 10.3563C12.3625 10.3563 12.5177 10.4617 12.6203 10.6131C12.7445 10.7965 12.8301 11.1099 12.8301 11.575V15.8371V16.3371H13.3301H15.8371Z" fill="#7F92A3" stroke="#7F92A3"/>
</svg>
